HIERARCHY
ROOT Hips
{
  OFFSET 3.13124 94.3669 -3.18751
  CHANNELS  6 Xposition Yposition Zposition Zrotation Xrotation Yrotation
  JOINT LeftUpLeg
  {
    OFFSET 8.64259 1.95398 -2.38835
    CHANNELS 3 Zrotation Xrotation Yrotation
    JOINT LeftLeg
    {
      OFFSET 43.7702 0 0
      CHANNELS 3 Zrotation Xrotation Yrotation
      JOINT LeftFoot
      {
        OFFSET 40.6238 0 0
        CHANNELS 3 Zrotation Xrotation Yrotation
        JOINT LeftToeBase
        {
          OFFSET 12.7242 0 0
          CHANNELS 3 Zrotation Xrotation Yrotation
          End Site
          {
            OFFSET 0 0 0
          }
        }
      }
    }
  }
  JOINT RightUpLeg
  {
    OFFSET -8.2249 1.95398 -2.59336
    CHANNELS 3 Zrotation Xrotation Yrotation
    JOINT RightLeg
    {
      OFFSET 43.5653 0 0
      CHANNELS 3 Zrotation Xrotation Yrotation
      JOINT RightFoot
      {
        OFFSET 40.6238 0 0
        CHANNELS 3 Zrotation Xrotation Yrotation
        JOINT RightToeBase
        {
          OFFSET 12.7242 0 0
          CHANNELS 3 Zrotation Xrotation Yrotation
          End Site
          {
            OFFSET 0 0 0
          }
        }
      }
    }
  }
  JOINT Spine
  {
    OFFSET 0.165834 0.87714 6.61349
    CHANNELS 3 Zrotation Xrotation Yrotation
    JOINT Spine1
    {
      OFFSET 7.38962 1.71661e-005 0
      CHANNELS 3 Zrotation Xrotation Yrotation
      JOINT Spine2
      {
        OFFSET 11.9445 1.14441e-005 0
        CHANNELS 3 Zrotation Xrotation Yrotation
        JOINT Spine3
        {
          OFFSET 14.7254 4.19617e-005 0
          CHANNELS 3 Zrotation Xrotation Yrotation
          JOINT Spine4
          {
            OFFSET 10.9679 0 0
            CHANNELS 3 Zrotation Xrotation Yrotation
            JOINT RightShoulder
            {
              OFFSET 2.46616 -1.6653 3.69651
              CHANNELS 3 Zrotation Xrotation Yrotation
              JOINT RightArm
              {
                OFFSET 13.0012 0 0
                CHANNELS 3 Zrotation Xrotation Yrotation
                JOINT RightForeArm
                {
                  OFFSET 28.7848 1.52588e-005 0
                  CHANNELS 3 Zrotation Xrotation Yrotation
                  JOINT RightHand
                  {
                    OFFSET 26.5688 1.52588e-005 0
                    CHANNELS 3 Zrotation Xrotation Yrotation
                    End Site
                    {
                      OFFSET 0 0 0
                    }
                  }
                }
              }
            }
            JOINT LeftShoulder
            {
              OFFSET 2.38034 -1.29275 -3.75231
              CHANNELS 3 Zrotation Xrotation Yrotation
              JOINT LeftArm
              {
                OFFSET 16.3182 6.10352e-005 0
                CHANNELS 3 Zrotation Xrotation Yrotation
                JOINT LeftForeArm
                {
                  OFFSET 27.0901 0 0
                  CHANNELS 3 Zrotation Xrotation Yrotation
                  JOINT LeftHand
                  {
                    OFFSET 24.5451 1.52588e-005 0
                    CHANNELS 3 Zrotation Xrotation Yrotation
                    End Site
                    {
                      OFFSET 0 0 0
                    }
                  }
                }
              }
            }
            JOINT Neck
            {
              OFFSET 5.0226 -0.0266342 0
              CHANNELS 3 Zrotation Xrotation Yrotation
              JOINT Head
              {
                OFFSET 6.69363 2.86102e-005 0
                CHANNELS 3 Zrotation Xrotation Yrotation
                End Site
                {
                  OFFSET 0 0 0
                }
              }
            }
          }
        }
      }
    }
  }
}
MOTION
Frames:	15
Frame Time:	0.0333333
48.3497 90.4177 -25.2953 -92.8094 -17.0878 -101.467 -172.728 12.1863 83.4612 -33.4364 -1.4289 1.47265 65.5693 4.07939 1.93853 28.7808 4.77609e-006 1.21741e-005 -177.518 31.3869 82.4278 -68.8837 7.22875 -0.455495 48.0454 3.11418 2.83311 28.7808 1.396e-005 2.37347e-005 0.58567 7.97453 -85.7974 10.9461 2.42971 3.03767 -0.725863 2.56099 2.92786 -23.2401 1.40515 3.62682 -3.22746 1.40513 3.62679 75.6315 -56.5987 -119.406 30.3091 11.4653 -0.920131 -28.817 -26.7508 -49.2822 25.9501 3.93292 11.5514 -88.6024 -46.0948 80.0436 -12.766 -20.1183 -0.794733 0.530378 -3.1064 -34.233 5.44081 2.09405 26.6683 9.16015 11.5972 7.4393 -29.4485 4.36231 22.5992 
45.9988 91.2715 -25.3381 -93.0083 -17.7417 -100.389 -172.207 9.8058 85.3753 -31.3012 -0.110428 1.63046 64.3323 3.19504 1.45954 28.7808 4.77609e-006 1.21741e-005 -177.414 31.6079 80.4792 -60.6961 12.038 0.00681492 51.0511 0.458107 0.715676 28.7808 1.396e-005 2.37347e-005 0.387208 7.96899 -86.1326 10.9432 2.0988 2.90202 -0.729142 2.22444 2.80691 -23.2433 1.13017 3.39813 -3.23066 1.13015 3.39811 77.613 -57.214 -116.464 28.472 12.9243 -1.38865 -12.3467 -11.309 -41.9291 14.7124 2.96827 16.8408 -91.079 -45.6643 76.0657 -12.1617 -21.0277 -2.33792 2.32151 -0.306859 -38.0893 0.499812 0.623298 23.9546 7.83024 10.7127 5.53399 -29.0455 3.54306 24.6301 
43.686 91.8793 -25.4396 -93.334 -19.2085 -99.6774 -171.695 7.74653 86.9646 -29.5703 1.21781 1.83284 63.3651 2.75015 1.21112 28.7808 4.77609e-006 1.21741e-005 -177.876 30.6234 78.2634 -50.4202 11.3996 0.143449 52.0539 -2.70993 -1.57418 28.7808 1.396e-005 2.37347e-005 0.19492 7.95573 -86.4686 10.9598 1.72388 2.77228 -0.71282 1.84413 2.69379 -23.227 0.811463 3.16184 -3.21436 0.811448 3.16182 79.8353 -57.1017 -113.464 25.9438 14.9051 0.511895 -0.735476 2.84075 -43.249 10.3035 2.5849 21.6626 -93.9013 -45.9327 71.7535 -11.881 -21.487 -7.96125 3.70336 1.78581 -36.078 -0.0505162 0.405712 19.7639 6.48149 9.95477 4.79049 -28.875 3.03999 24.7259 
41.3352 92.1705 -25.4915 -94.0616 -21.7518 -99.6483 -171.285 5.46463 88.1132 -27.8164 2.86772 2.10387 63.5008 2.38833 1.01369 28.7808 4.77609e-006 1.21741e-005 -179.307 27.8201 76.1513 -38.5193 3.85332 -0.0897123 50.2625 -3.63325 -2.26932 28.7808 1.396e-005 2.37347e-005 0.00939427 7.94599 -86.8431 10.9728 1.267 2.62987 -0.700005 1.38146 2.57168 -23.2147 0.418368 2.88897 -3.202 0.418347 2.88895 82.572 -56.1316 -109.993 23.5339 16.8154 3.47853 10.9922 14.9535 -46.951 7.20562 1.8775 22.359 -97.587 -46.9586 66.4674 -11.1981 -22.5065 -12.0707 4.78364 3.28552 -36.8581 -3.43572 -0.294442 17.3652 4.26252 9.14834 5.42786 -28.0796 2.71177 23.4105 
38.8833 92.1214 -25.6585 -95.2241 -25.044 -100.31 -170.791 3.47487 89.0444 -27.0814 4.80925 2.52792 64.2829 2.86563 1.28975 28.7808 4.77609e-006 1.21741e-005 178.463 23.6954 74.2757 -27.1253 -4.74109 -0.36635 46.6795 -4.27406 -2.85927 28.7808 1.396e-005 2.37347e-005 -0.17652 7.99678 -87.1173 10.8642 0.766063 2.54044 -0.808902 0.877023 2.50308 -23.3241 -0.0320235 2.65142 -3.3115 -0.0320225 2.65142 85.1103 -54.9018 -106.776 21.7093 18.142 6.27063 18.1475 21.4738 -49.447 6.94477 1.70796 20.8434 -101.323 -47.981 61.301 -11.2585 -23.1658 -17.1546 3.90248 1.90919 -37.8116 -6.16823 -0.756587 15.1815 2.26292 8.05656 5.90536 -27.1996 2.17812 21.9276 
36.0812 91.7067 -25.9218 -96.8879 -28.6778 -101.643 -170.147 1.47217 90.2146 -26.9758 7.98753 3.15582 66.0126 2.96072 1.3288 28.7808 4.77609e-006 1.21741e-005 176.678 19.5646 72.455 -22.3087 -13.6702 -0.691822 50.4482 -2.80868 -1.69988 28.7808 1.396e-005 2.37347e-005 -0.316396 8.06049 -87.2221 10.7289 0.321253 2.57275 -0.944508 0.434212 2.55691 -23.4595 -0.467348 2.55188 -3.44684 -0.467352 2.55187 86.1858 -54.2999 -105.4 20.765 18.6433 10.2344 20.6119 24.6726 -49.195 6.82546 0.978255 10.2055 -104.132 -47.9394 57.1921 -12.3823 -23.1898 -22.1018 2.95655 0.442159 -40.9941 -10.3501 -1.80424 19.8203 0.121899 6.56231 4.98718 -26.6841 1.24669 20.9491 
33.1825 91.0093 -26.4665 -98.4242 -31.7127 -103.297 -169.149 0.0812962 91.3985 -27.8219 11.6503 3.94891 67.9796 2.4743 1.04056 28.7808 4.77609e-006 1.21741e-005 176.644 17.3016 70.934 -26.3583 -15.8673 -0.848081 61.0482 -0.607757 -0.263596 28.7808 1.396e-005 2.37347e-005 -0.350719 8.06278 -87.2002 10.7218 0.0976547 2.56819 -0.951641 0.209864 2.56115 -23.4679 -0.670798 2.46965 -3.45525 -0.670802 2.46963 86.8148 -54.1778 -104.522 18.4656 19.9081 13.7381 19.563 23.7258 -48.7989 5.83737 1.04315 13.5787 -106.659 -48.6176 53.9106 -14.8245 -20.9753 -26.3485 2.54014 -0.0677454 -40.6285 -8.91373 -1.03212 11.9866 -2.55168 4.9862 4.69328 -26.843 0.0508344 19.8253 
30.4986 90.659 -27.5067 -99.1497 -33.7355 -102.145 -167.899 0.245395 95.1383 -28.9942 15.1303 5.28277 69.3716 1.4203 0.496754 28.7808 4.77609e-006 1.21741e-005 177.609 16.3233 74.156 -29.9159 -10.5705 -0.67026 64.3638 -2.82081 -1.56167 28.7808 1.396e-005 2.37347e-005 -0.268658 8.03874 -87.5078 10.7802 0.0399177 1.93765 -0.892144 0.125178 1.93381 -23.4168 -0.545117 1.86075 -3.40421 -0.545113 1.86074 86.639 -55.0296 -104.552 16.3525 20.6682 15.3578 14.2407 21.0354 -43.7997 5.03025 0.877897 13.1055 -109.041 -49.8792 51.1238 -17.0159 -18.9384 -29.2929 3.29775 0.690177 -44.2908 -10.7445 -1.39273 13.3521 -5.00772 3.78924 4.53712 -27.1523 -1.07162 19.7099 
28.4311 91.1993 -28.4294 -99.9974 -34.6605 -99.6532 -165.924 0.938072 99.1674 -30.1761 16.3614 6.65301 68.0484 0.742118 0.142591 28.7808 4.77609e-006 1.21741e-005 177.692 12.9987 78.6777 -27.6932 -7.83596 -0.512028 63.8706 -3.04241 -1.68896 28.7808 1.396e-005 2.37347e-005 -0.233736 8.13264 -88.0635 10.5945 -0.179248 1.01109 -1.07682 -0.135022 1.02129 -23.6096 -0.460559 0.900609 -3.59692 -0.46057 0.900597 86.4343 -54.9772 -104.855 15.0274 20.9328 14.6477 9.52759 18.0251 -38.7632 6.55144 1.39553 17.0219 -110.076 -50.5445 50.0368 -19.9017 -15.348 -30.1635 1.57024 -1.16345 -49.2725 -6.35565 -0.746837 14.2775 -7.00055 3.18523 3.25294 -26.027 -1.51225 20.6897 
26.8704 91.6181 -29.1976 -99.9007 -36.93 -99.6897 -166.7 2.61517 99.0766 -32.0139 15.2871 8.05782 65.14 0.648546 0.0653123 28.7808 4.77609e-006 1.21741e-005 177.763 11.9995 79.5867 -27.3255 -5.79131 -0.41403 64.1382 -2.95258 -1.63465 28.7808 1.396e-005 2.37347e-005 -0.487201 8.17583 -88.1732 10.4965 -0.761792 0.914358 -1.17465 -0.72065 0.945596 -23.7099 -1.00247 0.652738 -3.69729 -1.00247 0.652726 85.8021 -55.7528 -105.549 8.41717 22.7265 4.97107 22.448 49.9326 -34.8603 18.2761 7.62338 38.9568 -109.806 -49.5014 49.8959 -22.8528 -10.7913 -29.0246 -3.77875 -5.0692 -55.7582 -0.0960884 0.269778 13.7691 -7.91483 2.67797 -0.325106 -25.3497 -1.72571 21.1732 
25.5732 91.9049 -30.0297 -98.9729 -39.7673 -100.289 -168.337 5.38602 97.057 -34.5884 12.5716 9.51982 61.4083 0.470997 -0.0971715 28.7808 4.77609e-006 1.21741e-005 177.867 12.3403 79.3945 -27.9245 -3.37329 -0.308548 64.9045 -2.77665 -1.5305 28.7808 1.396e-005 2.37347e-005 -0.879591 8.21043 -88.0048 10.4119 -1.42215 1.17852 -1.25892 -1.36867 1.23864 -23.7981 -1.71224 0.705591 -3.7855 -1.71226 0.705568 84.1198 -57.7641 -107.35 7.52753 21.2135 -6.53174 0.968791 59.0419 -7.66637 21.1964 9.45953 41.5357 -108.077 -47.929 51.5329 -26.1214 -4.55894 -28.1445 -10.2185 -8.0191 -62.0808 6.4252 1.1662 11.822 -6.80096 2.15166 -5.57061 -26.1631 -2.19349 22.078 
24.5291 92.1391 -30.7464 -98.1623 -42.0309 -100.676 -169.316 8.20195 95.5211 -36.8731 8.63797 9.73652 57.8953 0.522245 -0.141729 28.7808 4.77609e-006 1.21741e-005 178.042 12.7664 79.2671 -28.5171 -1.65986 -0.235202 65.3228 -2.5919 -1.42898 28.7808 1.396e-005 2.37347e-005 -1.08542 8.21624 -87.9059 10.3915 -1.83061 1.10417 -1.27876 -1.78026 1.18367 -23.8226 -2.07739 0.502778 -3.80995 -2.0774 0.502757 83.9908 -58.1659 -107.412 8.98894 20.9004 -8.37735 0.668444 57.2412 -7.39999 21.6125 9.43851 40.6 -108.392 -47.129 50.7 -29.2865 1.83311 -26.0863 -11.5923 -7.6529 -66.0502 9.19961 1.51727 11.4045 -6.6676 1.4274 -7.90208 -26.476 -2.41923 20.4254 
23.7016 92.3018 -31.2111 -98.0368 -43.0407 -100.822 -169.239 9.41 95.7497 -37.0099 2.80922 7.05965 56.5435 0.321225 -0.284903 28.7808 4.77609e-006 1.21741e-005 178.189 12.6835 79.5686 -28.9566 -0.985152 -0.209477 65.4288 -2.29926 -1.27039 28.7808 1.396e-005 2.37347e-005 -1.14222 8.34688 -87.9154 10.1198 -1.94484 0.942692 -1.55005 -1.90148 1.02741 -24.0964 -2.1377 0.31439 -4.08377 -2.13771 0.314379 82.6921 -59.066 -108.911 11.2406 20.3137 -10.7128 -0.0710371 50.0663 -6.86839 25.6315 9.60741 34.5553 -108.492 -45.995 49.9905 -31.8888 6.68645 -21.9407 -9.31164 -5.61894 -69.8329 0.53123 0.332398 12.2391 -6.45315 0.351774 -11.3496 -26.2421 -3.0466 20.0094 
23.0431 92.3416 -31.5755 -97.6409 -43.4071 -100.995 -169.013 10.1051 96.0125 -36.788 -1.81618 4.29571 56.2347 -0.142988 -0.593041 28.7808 4.77609e-006 1.21741e-005 178.342 13.1568 79.5265 -29.8335 -0.723569 -0.20673 65.8773 -2.0772 -1.15032 28.7808 1.396e-005 2.37347e-005 -1.14067 8.45065 -88.0329 9.90847 -1.99104 0.597647 -1.76114 -1.96281 0.684729 -24.3085 -2.0801 -0.0286095 -4.2959 -2.0801 -0.0286406 82.1895 -58.7319 -109.699 14.4262 20.6786 -4.85543 12.0927 36.8858 -27.2293 26.6776 8.75339 29.953 -109.875 -46.1624 48.0978 -37.5678 13.3403 -19.9558 10.9484 3.85293 -64.7455 1.44716 0.330861 7.73267 -6.4541 -0.377288 -11.9247 -26.1777 -3.17493 17.5291 
22.6162 92.2688 -31.9072 -96.444 -43.6731 -100.571 -168.999 10.9585 96.062 -36.2176 -5.32641 2.4385 56.5299 -0.453726 -0.76545 28.7808 4.77609e-006 1.21741e-005 178.528 14.4149 79.3997 -30.8233 -0.630194 -0.213486 66.432 -1.61382 -0.900398 28.7808 1.396e-005 2.37347e-005 -1.19096 8.52505 -88.1698 9.75647 -2.08943 0.323361 -1.91286 -2.07319 0.415041 -24.4614 -2.0885 -0.319827 -4.44874 -2.08851 -0.319846 80.7801 -59.1711 -111.473 16.3504 20.0167 -5.77927 7.45025 24.03 -27.5102 31.5411 7.59535 20.9589 -110.485 -45.3351 46.7824 -40.0912 15.1879 -13.2752 25.3704 9.62069 -69.4493 -13.2705 -0.477273 -0.353028 -6.2983 -1.03395 -13.4189 -26.2456 -3.30417 15.7313 
